TITLE ""
FILE "Step3_Track48.mp3" MP3
  TRACK 01 AUDIO
    TITLE "Step3_Track48_01"
    INDEX 01 00:00:00
  TRACK 02 AUDIO
    TITLE "Step3_Track48_02"
    INDEX 01 00:00:24
  TRACK 03 AUDIO
    TITLE "Step3_Track48_03"
    INDEX 01 00:01:63
  TRACK 04 AUDIO
    TITLE "Step3_Track48_04"
    INDEX 01 00:02:44
  TRACK 05 AUDIO
    TITLE "Step3_Track48_05"
    INDEX 01 00:03:44
  TRACK 06 AUDIO
    TITLE "Step3_Track48_06"
    INDEX 01 00:03:63
  TRACK 07 AUDIO
    TITLE "Step3_Track48_07"
    INDEX 01 00:07:10
  TRACK 08 AUDIO
    TITLE "Step3_Track48_08"
    INDEX 01 00:07:24
  TRACK 09 AUDIO
    TITLE "Step3_Track48_09"
    INDEX 01 00:08:18
  TRACK 10 AUDIO
    TITLE "Step3_Track48_10"
    INDEX 01 00:08:25
  TRACK 11 AUDIO
    TITLE "Step3_Track48_11"
    INDEX 01 00:11:47
  TRACK 12 AUDIO
    TITLE "Step3_Track48_12"
    INDEX 01 00:11:69
  TRACK 13 AUDIO
    TITLE "Step3_Track48_13"
    INDEX 01 00:12:62
  TRACK 14 AUDIO
    TITLE "Step3_Track48_14"
    INDEX 01 00:13:07
  TRACK 15 AUDIO
    TITLE "Step3_Track48_15"
    INDEX 01 00:17:01
  TRACK 16 AUDIO
    TITLE "Step3_Track48_16"
    INDEX 01 00:17:03
  TRACK 17 AUDIO
    TITLE "Step3_Track48_17"
    INDEX 01 00:18:06
  TRACK 18 AUDIO
    TITLE "Step3_Track48_18"
    INDEX 01 00:18:28
  TRACK 19 AUDIO
    TITLE "Step3_Track48_19"
    INDEX 01 00:22:02
  TRACK 20 AUDIO
    TITLE "Step3_Track48_20"
    INDEX 01 00:22:12
  TRACK 21 AUDIO
    TITLE "Step3_Track48_21"
    INDEX 01 00:23:03
  TRACK 22 AUDIO
    TITLE "Step3_Track48_22"
    INDEX 01 00:23:25
  TRACK 23 AUDIO
    TITLE "Step3_Track48_23"
    INDEX 01 00:27:40
  TRACK 24 AUDIO
    TITLE "Step3_Track48_24"
    INDEX 01 00:27:42
  TRACK 25 AUDIO
    TITLE "Step3_Track48_25"
    INDEX 01 00:28:44
  TRACK 26 AUDIO
    TITLE "Step3_Track48_26"
    INDEX 01 00:28:56
  TRACK 27 AUDIO
    TITLE "Step3_Track48_27"
    INDEX 01 00:32:28
  TRACK 28 AUDIO
    TITLE "Step3_Track48_28"
    INDEX 01 00:32:34
  TRACK 29 AUDIO
    TITLE "Step3_Track48_29"
    INDEX 01 00:33:37
  TRACK 30 AUDIO
    TITLE "Step3_Track48_30"
    INDEX 01 00:33:51
  TRACK 31 AUDIO
    TITLE "Step3_Track48_31"
    INDEX 01 00:37:37
  TRACK 32 AUDIO
    TITLE "Step3_Track48_32"
    INDEX 01 00:37:74
  TRACK 33 AUDIO
    TITLE "Step3_Track48_33"
    INDEX 01 00:38:64
  TRACK 34 AUDIO
    TITLE "Step3_Track48_34"
    INDEX 01 00:39:08
  TRACK 35 AUDIO
    TITLE "Step3_Track48_35"
    INDEX 01 00:42:26
  TRACK 36 AUDIO
    TITLE "Step3_Track48_36"
    INDEX 01 00:42:44
  TRACK 37 AUDIO
    TITLE "Step3_Track48_37"
    INDEX 01 00:43:49
  TRACK 38 AUDIO
    TITLE "Step3_Track48_38"
    INDEX 01 00:43:53
  TRACK 39 AUDIO
    TITLE "Step3_Track48_39"
    INDEX 01 00:46:48
  TRACK 40 AUDIO
    TITLE "Step3_Track48_40"
    INDEX 01 00:46:73
  TRACK 41 AUDIO
    TITLE "Step3_Track48_41"
    INDEX 01 00:47:69
  TRACK 42 AUDIO
    TITLE "Step3_Track48_42"
    INDEX 01 00:48:09
  TRACK 43 AUDIO
    TITLE "Step3_Track48_43"
    INDEX 01 00:52:31
